# xmcd
# Track frame offsets:
# 150
# 12565
# 26950
# 40952
# 55195
# 68215
# 80917
# 98742
# 113917
# 123085
# 136047
# 146627
#
# Disc length: 2137 seconds
# Revision: 0
# Processed by: cddbd v1.4PL0 Copyright (c) Steve Scherf et al.
# Submitted via: VisiTrax 2.9.5.180 - For more info visit www.synapsa.com
#
DISCID=a808570c
DTITLE=Anne Marie and John - Chasing our dream
DYEAR=1900
DGENRE=Irsk
TTITLE0=Blackwater valley
TTITLE1=If you an touch her at all
TTITLE2=Treadin water
TTITLE3=Thank God for the radio
TTITLE4=Did you ever
TTITLE5=Got my heart set on you
TTITLE6=Hard rock bottom of my heart
TTITLE7=Wild side of life
TTITLE8=Some old rainy morning
TTITLE9=Almost persuaded
TTITLE10=Time changes everything
TTITLE11=Does she still think of me
EXTD=
EXTT0=
EXTT1=
EXTT2=
EXTT3=
EXTT4=
EXTT5=
EXTT6=
EXTT7=
EXTT8=
EXTT9=
EXTT10=
EXTT11=
PLAYORDER=
